<svg xmlns="http://www.w3.org/2000/svg" viewBox="0 0 16 16">
  <!-- PNB Red Shield with Yellow Border -->
  <path fill="#A3112E" stroke="#f9bb1a" stroke-width="1.2" d="M5.072.56C6.157.265 7.31 0 8 0s1.843.265 2.928.56c1.11.3 2.229.655 2.887.87a1.54 1.54 0 0 1 1.044 1.262c.596 4.477-.787 7.795-2.465 9.99a11.775 11.775 0 0 1-2.517 2.453 7.159 7.159 0 0 1-1.048.625c-.28.132-.581.24-.829.24s-.548-.108-.829-.24a7.158 7.158 0 0 1-1.048-.625 11.777 11.777 0 0 1-2.517-2.453C1.928 10.463.545 7.145 1.141 2.692A1.54 1.54 0 0 1 2.185 1.43 62.456 62.456 0 0 1 5.072.56z"/>
  <!-- PNB Yellow Lock (Centered and Scaled) -->
  <g transform="translate(4.5, 4.5) scale(0.44)">
    <path fill="#f9bb1a" d="M8 1a2 2 0 0 1 2 2v4H6V3a2 2 0 0 1 2-2zm3 6V3a3 3 0 0 0-6 0v4a2 2 0 0 0-2 2v5a2 2 0 0 0 2 2h6a2 2 0 0 0 2-2V9a2 2 0 0 0-2-2z"/>
  </g>
</svg>
